<svg width="20" height="22" viewBox="0 0 20 22" fill="none" xmlns="http://www.w3.org/2000/svg">
<mask id="mask0_65_212" style="mask-type:alpha" maskUnits="userSpaceOnUse" x="0" y="0" width="20" height="22">
<g clip-path="url(#clip0_65_212)">
<path d="M18.7198 11.551C18.9634 11.7948 19.1003 12.1253 19.1003 12.47C19.1003 12.8146 18.9634 13.1452 18.7198 13.389L10.9198 21.189C10.799 21.3099 10.6556 21.4059 10.4978 21.4713C10.3399 21.5368 10.1707 21.5705 9.99978 21.5705C9.82888 21.5705 9.65966 21.5368 9.5018 21.4713C9.34393 21.4059 9.20053 21.3099 9.07978 21.189L1.27978 13.389C1.03605 13.145 0.899227 12.8141 0.899414 12.4693C0.899602 12.1244 1.03678 11.7937 1.28078 11.55C1.52478 11.3062 1.85561 11.1694 2.20049 11.1696C2.54537 11.1698 2.87605 11.307 3.11978 11.551L8.69978 17.131V2.07197C8.69978 1.72719 8.83675 1.39653 9.08054 1.15273C9.32434 0.908937 9.655 0.771973 9.99978 0.771973C10.3446 0.771973 10.6752 0.908937 10.919 1.15273C11.1628 1.39653 11.2998 1.72719 11.2998 2.07197V17.132L16.8798 11.552C17.0005 11.431 17.1439 11.3351 17.3018 11.2696C17.4597 11.2041 17.6289 11.1704 17.7998 11.1704C17.9707 11.1704 18.1399 11.2041 18.2978 11.2696C18.4556 11.3351 18.599 11.431 18.7198 11.552V11.551Z" fill="black"/>
</g>
</mask>
<g mask="url(#mask0_65_212)">
<rect y="0.669922" width="20" height="21" fill="#C3C2D4"/>
</g>
<defs>
<clipPath id="clip0_65_212">
<rect width="20" height="21" fill="white" transform="translate(0 0.669922)"/>
</clipPath>
</defs>
</svg>
