 <svg width="33" height="32" viewBox="0 0 33 32" fill="none" xmlns="http://www.w3.org/2000/svg">
<circle cx="16.085" cy="16" r="16" fill="black" fill-opacity="0.1"/>
<path fill-rule="evenodd" clip-rule="evenodd" d="M18.1335 12.5493C18.8619 12.1832 19.7886 11.6443 20.7165 10.906C20.9121 11.3155 20.9335 11.6729 20.8327 11.9614C20.7613 12.1648 20.6267 12.3417 20.4497 12.4824C20.258 12.6345 20.0187 12.7452 19.7541 12.805C19.252 12.919 18.6658 12.8525 18.1335 12.5493ZM18.2598 16.3002L19.2239 16.8615C17.2553 17.9737 16.7202 20.0388 16.0845 22.0502C15.4488 20.0388 14.9136 17.9737 12.9451 16.8615L13.9092 16.3002C14.0025 16.2646 14.0822 16.2003 14.137 16.1163C14.1917 16.0323 14.2187 15.933 14.214 15.8326C14.1257 13.9488 14.6303 13.1158 15.3109 12.5927C15.555 12.4054 15.8215 12.3113 16.0845 12.3113C16.3474 12.3113 16.6139 12.4054 16.8581 12.5927C17.5388 13.1158 18.0434 13.9488 17.955 15.8326C17.9504 15.933 17.9773 16.0323 18.0321 16.1163C18.0868 16.2003 18.1665 16.2646 18.2598 16.3002ZM16.0845 4C17.1989 4.03016 18.3161 4.24824 19.2857 4.67248C19.9572 4.96664 20.5837 5.3552 21.151 5.81984C21.4072 6.0296 21.6181 6.23224 21.8505 6.46552C22.4773 6.48736 23.3932 5.78552 23.8184 5.1288C23.0866 7.5472 19.7471 10.4031 17.4351 11.4959L17.4328 11.4945C17.0179 11.1751 16.5512 11.0154 16.0845 11.0154C15.6177 11.0154 15.1511 11.1751 14.7362 11.4945L14.7339 11.4959C12.4219 10.4031 9.08241 7.5472 8.35059 5.1288C8.77574 5.78552 9.6917 6.48736 10.3184 6.46552C10.5509 6.23232 10.7619 6.0296 11.018 5.81984C11.5853 5.3552 12.2118 4.96664 12.8832 4.67248C13.8529 4.24824 14.9701 4.03016 16.0845 4ZM14.0354 12.5493C13.3072 12.1832 12.3803 11.6443 11.4526 10.906C11.2569 11.3155 11.2355 11.6729 11.3362 11.9614C11.4077 12.1648 11.5423 12.3417 11.7192 12.4824C11.911 12.6345 12.1503 12.7452 12.415 12.805C12.917 12.919 13.5031 12.8525 14.0354 12.5493Z" fill="black"/>
<path fill-rule="evenodd" clip-rule="evenodd" d="M21.7331 10.0015C22.2439 9.48187 22.694 8.90675 23.0559 8.39355L23.2397 8.74227C23.8315 9.93563 24.1389 11.1242 24.1389 12.4618L24.1377 14.5844L24.1488 15.6847C24.1916 18.386 24.7715 21.119 26.085 23.6201L23.3368 21.3864L21.3923 24.5671L19.3494 22.6286L16.085 27.9685L12.8205 22.6287L10.7777 24.5672L8.83321 21.3864L6.08496 23.6202C7.39845 21.1191 7.97829 18.386 8.02123 15.6848L8.03234 14.5844L8.03107 12.4619C8.03107 11.1242 8.33845 9.93563 8.93036 8.74235L9.11409 8.39363C9.47599 8.90683 9.92599 9.48187 10.4369 10.0016L10.2773 10.3356C9.96742 10.9843 9.8648 11.7096 10.1062 12.3995C10.2619 12.8438 10.5459 13.2248 10.9121 13.5157C11.2677 13.7982 11.6885 13.9886 12.129 14.0886C12.416 14.1537 12.7084 14.1805 12.9988 14.1714C12.9311 14.5587 12.9015 14.9604 12.8996 15.3696L10.3072 16.8789L12.3077 18.0092C12.4676 18.0996 12.6198 18.2031 12.7627 18.3188C14.412 19.8114 15.4036 24.2272 16.085 26.384C16.7665 24.2272 17.7581 19.8114 19.4074 18.3188C19.5504 18.2031 19.7026 18.0996 19.8625 18.0092L21.863 16.8789L19.2705 15.3696C19.2686 14.9604 19.239 14.5587 19.1712 14.1714C19.4617 14.1805 19.7541 14.1537 20.0411 14.0886C20.4816 13.9886 20.9025 13.7982 21.258 13.5157C21.6241 13.2248 21.9082 12.8438 22.0638 12.3995C22.3053 11.7096 22.2026 10.9844 21.8927 10.3356L21.7332 10.0016L21.7331 10.0015Z" fill="black"/>
</svg>
