<svg width="33" height="32" viewBox="0 0 33 32" fill="none" xmlns="http://www.w3.org/2000/svg">
<circle cx="16.085" cy="16" r="16" fill="#24A1DE"/>
<path fill-rule="evenodd" clip-rule="evenodd" d="M5.3749 14.6099C10.7436 11.7874 14.3236 9.92667 16.1148 9.02765C21.2292 6.46077 22.2919 6.01488 22.9846 6.00016C23.1369 5.99692 23.4776 6.04248 23.6982 6.25852C23.8845 6.44094 23.9358 6.68737 23.9603 6.86033C23.9848 7.03328 24.0154 7.42728 23.9911 7.73514C23.714 11.249 22.5147 19.7762 21.9046 23.7118C21.6465 25.3771 21.1382 25.9354 20.6461 25.9901C19.5766 26.1088 18.7645 25.1372 17.7287 24.3179C16.1078 23.0358 15.1921 22.2377 13.6188 20.9867C11.8005 19.5408 12.9792 18.7462 14.0155 17.4475C14.2866 17.1076 18.9987 11.9358 19.0899 11.4667C19.1013 11.408 19.1119 11.1893 19.0042 11.0738C18.8965 10.9583 18.7376 10.9978 18.6229 11.0292C18.4604 11.0737 15.871 13.1389 10.8549 17.2247C10.1199 17.8337 9.45416 18.1304 8.8577 18.1149C8.20015 18.0977 6.93528 17.6663 5.99498 17.2974C4.84166 16.8451 3.92503 16.6059 4.00485 15.8376C4.04642 15.4374 4.5031 15.0282 5.3749 14.6099Z" fill="white"/>
</svg>
